<svg xmlns="http://www.w3.org/2000/svg" viewBox="0 0 2120.88 759.3" role="img" aria-label="Vitality Source — Restore. Renew. Thrive."><g fill="#FBF8F3"><path d="M347.8 152.54479999999998Q348.82000000000005 152.54479999999998 348.82000000000005 154.58479999999997Q348.82000000000005 156.6248 347.8 156.6248Q337.26 156.6248 329.27 161.0448Q321.28 165.4648 315.16 180.0848L240.36 364.70480000000003Q240.02 366.0648 236.79000000000002 366.0648Q233.56 366.0648 232.88 364.70480000000003L148.9 180.7648Q143.12 167.5048 136.66 162.0648Q130.2 156.6248 119.32 156.6248Q118.3 156.6248 118.3 154.58479999999997Q118.3 152.54479999999998 119.32 152.54479999999998Q124.08 152.54479999999998 129.01 152.88479999999998Q133.94 153.2248 138.87 153.39479999999998Q143.8 153.5648 148.22 153.5648Q156.38 153.5648 163.18 153.39479999999998Q169.98000000000002 153.2248 175.59 152.88479999999998Q181.2 152.54479999999998 186.3 152.54479999999998Q187.32 152.54479999999998 187.32 154.58479999999997Q187.32 156.6248 186.3 156.6248Q173.38 156.6248 167.94 160.8748Q162.5 165.1248 168.28 177.3648L244.44 345.6648L235.26 358.2448L308.02 178.0448Q312.78 166.1448 307.68 161.38479999999998Q302.58000000000004 156.6248 283.54 156.6248Q282.52 156.6248 282.52 154.58479999999997Q282.52 152.54479999999998 283.54 152.54479999999998Q291.36 152.54479999999998 298.67 153.0548Q305.98 153.5648 317.54 153.5648Q327.4 153.5648 333.35 153.0548Q339.3 152.54479999999998 347.8 152.54479999999998Z"/><path d="M347.46 365.0448Q346.78 365.0448 346.78 363.00480000000005Q346.78 360.9648 347.46 360.9648Q361.4 360.9648 365.65 356.5448Q369.9 352.1248 369.9 337.5048V273.2448Q369.9 261.0048 367.52 255.3948Q365.14 249.78480000000002 358.68 249.78480000000002Q355.62 249.78480000000002 351.71000000000004 250.97480000000002Q347.8 252.1648 342.36 254.88479999999998Q341.0 255.22480000000002 340.15 253.3548Q339.3 251.4848 340.65999999999997 250.8048L382.82 231.0848Q383.84 230.7448 384.18 230.7448Q384.86 230.7448 385.71000000000004 231.4248Q386.56 232.1048 386.56 233.1248Q386.56 235.5048 386.22 246.2148Q385.88 256.9248 385.88 272.9048V337.5048Q385.88 352.1248 389.78999999999996 356.5448Q393.7 360.9648 407.98 360.9648Q409.0 360.9648 409.0 363.00480000000005Q409.0 365.0448 407.98 365.0448Q402.2 365.0448 394.38 364.7048Q386.56 364.3648 377.71999999999997 364.3648Q369.21999999999997 364.3648 361.4 364.7048Q353.58 365.0448 347.46 365.0448ZM375.0 189.60479999999998Q368.53999999999996 189.60479999999998 364.96999999999997 186.20479999999998Q361.4 182.8048 361.4 176.6848Q361.4 170.5648 364.96999999999997 167.1648Q368.53999999999996 163.7648 375.0 163.7648Q381.12 163.7648 384.52 167.1648Q387.91999999999996 170.5648 387.91999999999996 176.6848Q387.91999999999996 189.60479999999998 375.0 189.60479999999998Z"/><path d="M479.03999999999996 369.1248Q470.88 369.1248 463.57 366.5748Q456.26 364.0248 451.84 358.0748Q447.41999999999996 352.1248 447.41999999999996 341.9248V261.0048Q447.41999999999996 252.5048 446.4 248.5948Q445.38 244.6848 441.64 243.4948Q437.9 242.3048 429.73999999999995 242.3048Q428.71999999999997 242.3048 428.71999999999997 240.2648Q428.71999999999997 238.22480000000002 429.73999999999995 238.22480000000002Q442.65999999999997 238.22480000000002 450.65 231.0848Q458.64 223.9448 458.64 213.0648Q458.64 212.0448 461.18999999999994 212.0448Q463.73999999999995 212.0448 463.73999999999995 213.0648V330.3648Q463.73999999999995 344.64480000000003 470.7099999999999 351.61480000000006Q477.67999999999995 358.58480000000003 491.28 358.58480000000003Q500.46 358.58480000000003 507.42999999999995 355.6948Q514.4 352.8048 518.8199999999999 349.4048Q520.18 348.7248 521.2 350.25480000000005Q522.22 351.7848 520.86 352.8048Q508.28 361.64480000000003 498.76 365.38480000000004Q489.24 369.1248 479.03999999999996 369.1248ZM510.65999999999997 250.1248Q497.4 246.72480000000002 485.33 245.8748Q473.26 245.0248 459.65999999999997 245.0248V237.88479999999998Q472.91999999999996 237.88479999999998 485.33 236.8648Q497.74 235.8448 511.67999999999995 234.4848Q512.6999999999999 234.4848 513.3799999999999 236.6948Q514.06 238.9048 514.06 242.3048Q514.06 244.6848 513.04 247.57479999999998Q512.02 250.4648 510.65999999999997 250.1248Z"/><path d="M629.66 367.08480000000003Q628.3 367.76480000000004 626.94 367.76480000000004Q622.86 367.76480000000004 619.46 360.62480000000005Q616.0600000000001 353.4848 616.0600000000001 339.8848V274.26480000000004Q616.0600000000001 253.1848 609.4300000000001 245.0248Q602.8 236.8648 592.94 236.8648Q584.44 236.8648 578.83 240.7748Q573.22 244.6848 570.33 250.4648Q567.44 256.2448 566.08 261.3448Q565.4 264.7448 563.7 269.3348Q562.0 273.9248 555.2 273.9248Q550.1 273.9248 547.55 270.8648Q545.0 267.8048 545.0 264.4048Q545.0 258.6248 551.12 252.6748Q557.24 246.72480000000002 566.59 241.6248Q575.94 236.5248 586.1400000000001 233.4648Q596.34 230.4048 604.84 230.4048Q618.78 230.4048 625.24 239.4148Q631.7 248.4248 631.7 264.0648V328.3248Q631.7 340.5648 634.59 346.1748Q637.48 351.7848 644.62 351.7848Q651.08 351.7848 663.32 346.6848Q665.02 346.0048 665.7 347.8748Q666.38 349.7448 664.6800000000001 350.4248ZM569.48 367.4248Q556.9 367.4248 550.27 360.4548Q543.64 353.4848 543.64 344.3048Q543.64 338.5248 546.53 333.08480000000003Q549.42 327.64480000000003 556.73 322.5448Q564.04 317.4448 576.96 312.6848L619.46 296.7048L620.14 301.1248L580.02 316.4248Q572.88 319.14480000000003 569.14 322.37480000000005Q565.4 325.6048 564.04 329.1748Q562.6800000000001 332.7448 562.6800000000001 336.4848Q562.6800000000001 343.9648 567.61 350.08480000000003Q572.54 356.20480000000003 582.0600000000001 356.20480000000003Q585.8 356.20480000000003 589.88 355.01480000000004Q593.96 353.8248 599.74 350.4248L622.52 337.1648L623.2 341.2448L597.7 357.2248Q589.2 362.6648 582.74 365.0448Q576.28 367.4248 569.48 367.4248Z"/><path d="M672.8400000000001 365.0448Q671.82 365.0448 671.82 363.00480000000005Q671.82 360.9648 672.8400000000001 360.9648Q686.7800000000001 360.9648 690.8600000000001 356.5448Q694.94 352.1248 694.94 337.5048V161.04479999999998Q694.94 148.8048 692.5600000000001 143.1948Q690.1800000000001 137.5848 684.0600000000001 137.5848Q678.6200000000001 137.5848 667.7400000000001 142.6848Q666.3800000000001 143.3648 665.5300000000001 141.32479999999998Q664.6800000000001 139.2848 666.0400000000001 138.9448L707.8600000000001 118.88479999999998Q708.5400000000001 118.54479999999998 709.5600000000001 118.54479999999998Q710.2400000000001 118.54479999999998 711.0900000000001 119.22479999999999Q711.94 119.9048 711.94 120.9248V337.5048Q711.94 351.7848 715.8500000000001 356.37480000000005Q719.7600000000001 360.9648 734.0400000000001 360.9648Q735.0600000000001 360.9648 735.0600000000001 363.00480000000005Q735.0600000000001 365.0448 734.0400000000001 365.0448Q728.2600000000001 365.0448 720.2700000000001 364.7048Q712.2800000000001 364.3648 703.44 364.3648Q694.94 364.3648 686.7800000000001 364.7048Q678.6200000000001 365.0448 672.8400000000001 365.0448Z"/><path d="M758.5200000000001 365.0448Q757.8400000000001 365.0448 757.8400000000001 363.00480000000005Q757.8400000000001 360.9648 758.5200000000001 360.9648Q772.4600000000002 360.9648 776.7100000000002 356.5448Q780.9600000000002 352.1248 780.9600000000002 337.5048V273.2448Q780.9600000000002 261.0048 778.5800000000002 255.3948Q776.2 249.78480000000002 769.7400000000001 249.78480000000002Q766.6800000000001 249.78480000000002 762.7700000000001 250.97480000000002Q758.8600000000001 252.1648 753.4200000000001 254.88479999999998Q752.0600000000001 255.22480000000002 751.21 253.3548Q750.3600000000001 251.4848 751.7200000000001 250.8048L793.8800000000001 231.0848Q794.9000000000001 230.7448 795.2400000000001 230.7448Q795.9200000000001 230.7448 796.7700000000001 231.4248Q797.6200000000001 232.1048 797.6200000000001 233.1248Q797.6200000000001 235.5048 797.2800000000001 246.2148Q796.94 256.9248 796.94 272.9048V337.5048Q796.94 352.1248 800.8500000000001 356.5448Q804.7600000000001 360.9648 819.0400000000001 360.9648Q820.0600000000001 360.9648 820.0600000000001 363.00480000000005Q820.0600000000001 365.0448 819.0400000000001 365.0448Q813.2600000000001 365.0448 805.44 364.7048Q797.6200000000001 364.3648 788.7800000000001 364.3648Q780.2800000000001 364.3648 772.46 364.7048Q764.6400000000001 365.0448 758.5200000000001 365.0448ZM786.0600000000001 189.60479999999998Q779.6000000000001 189.60479999999998 776.0300000000002 186.20479999999998Q772.4600000000002 182.8048 772.4600000000002 176.6848Q772.4600000000002 170.5648 776.0300000000002 167.1648Q779.6000000000001 163.7648 786.0600000000001 163.7648Q792.1800000000001 163.7648 795.5800000000002 167.1648Q798.9800000000001 170.5648 798.9800000000001 176.6848Q798.9800000000001 189.60479999999998 786.0600000000001 189.60479999999998Z"/><path d="M890.1000000000001 369.1248Q881.9400000000002 369.1248 874.6300000000001 366.5748Q867.3200000000002 364.0248 862.9000000000001 358.0748Q858.4800000000001 352.1248 858.4800000000001 341.9248V261.0048Q858.4800000000001 252.5048 857.4600000000002 248.5948Q856.4400000000002 244.6848 852.7000000000002 243.4948Q848.9600000000002 242.3048 840.8000000000002 242.3048Q839.7800000000002 242.3048 839.7800000000002 240.2648Q839.7800000000002 238.22480000000002 840.8000000000002 238.22480000000002Q853.7200000000001 238.22480000000002 861.7100000000002 231.0848Q869.7000000000002 223.9448 869.7000000000002 213.0648Q869.7000000000002 212.0448 872.2500000000002 212.0448Q874.8000000000002 212.0448 874.8000000000002 213.0648V330.3648Q874.8000000000002 344.64480000000003 881.7700000000002 351.61480000000006Q888.7400000000001 358.58480000000003 902.3400000000001 358.58480000000003Q911.5200000000002 358.58480000000003 918.4900000000002 355.6948Q925.4600000000002 352.8048 929.8800000000001 349.4048Q931.2400000000001 348.7248 932.2600000000002 350.25480000000005Q933.2800000000002 351.7848 931.9200000000002 352.8048Q919.3400000000001 361.64480000000003 909.8200000000002 365.38480000000004Q900.3000000000002 369.1248 890.1000000000001 369.1248ZM921.7200000000001 250.1248Q908.4600000000002 246.72480000000002 896.3900000000001 245.8748Q884.3200000000002 245.0248 870.7200000000001 245.0248V237.88479999999998Q883.9800000000001 237.88479999999998 896.3900000000001 236.8648Q908.8000000000002 235.8448 922.7400000000001 234.4848Q923.7600000000001 234.4848 924.44 236.6948Q925.1200000000001 238.9048 925.1200000000001 242.3048Q925.1200000000001 244.6848 924.1000000000001 247.57479999999998Q923.0800000000002 250.4648 921.7200000000001 250.1248Z"/><path d="M1080.1600000000003 233.8048Q1081.1800000000003 233.8048 1081.1800000000003 235.8448Q1081.1800000000003 237.88479999999998 1080.1600000000003 237.88479999999998Q1072.3400000000001 237.88479999999998 1066.5600000000002 242.64479999999998Q1060.7800000000002 247.4048 1055.6800000000003 261.3448L1013.1800000000002 374.5648Q1000.9400000000002 407.20480000000003 989.7200000000003 426.0748Q978.5000000000002 444.9448 966.4300000000002 452.76480000000004Q954.3600000000001 460.58480000000003 939.0600000000002 460.58480000000003Q932.6000000000001 460.58480000000003 927.6700000000002 457.5248Q922.7400000000002 454.4648 922.7400000000002 448.00480000000005Q922.7400000000002 443.9248 925.6300000000002 441.7148Q928.5200000000002 439.50480000000005 931.9200000000002 439.50480000000005Q938.7200000000001 439.50480000000005 942.2900000000002 441.37480000000005Q945.8600000000001 443.2448 949.0900000000001 445.2848Q952.3200000000002 447.3248 957.7600000000002 447.3248Q966.2600000000002 447.3248 974.0800000000002 439.5048Q981.9000000000002 431.6848 990.9100000000002 412.9848Q999.9200000000002 394.2848 1012.1600000000002 361.9848V369.4648L959.4600000000002 262.0248Q951.9800000000001 247.0648 947.7300000000001 242.4748Q943.4800000000001 237.88479999999998 937.0200000000002 237.88479999999998Q936.3400000000001 237.88479999999998 936.3400000000001 235.8448Q936.3400000000001 233.8048 937.0200000000002 233.8048Q942.1200000000002 233.8048 947.5600000000002 234.1448Q953.0000000000002 234.4848 958.1000000000001 234.4848Q968.9800000000001 234.4848 977.3100000000002 234.1448Q985.6400000000002 233.8048 992.4400000000002 233.8048Q993.1200000000002 233.8048 993.1200000000002 235.8448Q993.1200000000002 237.88479999999998 992.4400000000002 237.88479999999998Q981.9000000000002 237.88479999999998 975.6100000000001 240.60479999999998Q969.3200000000002 243.32479999999998 973.4000000000002 251.1448L1021.0000000000002 348.7248L1014.2000000000002 361.3048L1048.5400000000002 262.7048Q1053.64 247.7448 1048.2000000000003 242.8148Q1042.7600000000002 237.88479999999998 1023.7200000000001 237.88479999999998Q1023.0400000000002 237.88479999999998 1023.0400000000002 235.8448Q1023.0400000000002 233.8048 1023.7200000000001 233.8048Q1031.88 233.8048 1039.19 234.1448Q1046.5000000000002 234.4848 1058.0600000000002 234.4848Q1065.2000000000003 234.4848 1069.6200000000003 234.1448Q1074.0400000000002 233.8048 1080.1600000000003 233.8048Z"/><path d="M1195.7600000000002 193.6848Q1195.7600000000002 207.9648 1202.73 217.9948Q1209.7 228.0248 1220.75 235.5048Q1231.8000000000002 242.9848 1244.0400000000002 250.1248Q1256.6200000000001 257.26480000000004 1268.1800000000003 265.25480000000005Q1279.7400000000002 273.2448 1287.3900000000003 284.2948Q1295.0400000000002 295.3448 1295.0400000000002 311.6648Q1295.0400000000002 327.3048 1287.3900000000003 340.39480000000003Q1279.7400000000002 353.4848 1264.44 361.3048Q1249.14 369.1248 1226.0200000000002 369.1248Q1218.5400000000002 369.1248 1211.23 368.1048Q1203.92 367.08480000000003 1196.27 364.5348Q1188.6200000000001 361.9848 1179.7800000000002 357.5648Q1178.0800000000002 356.5448 1177.5700000000002 355.01480000000004Q1177.0600000000002 353.4848 1176.7200000000003 351.1048L1171.6200000000001 306.9048Q1171.2800000000002 305.2048 1173.15 305.0348Q1175.0200000000002 304.8648 1175.3600000000001 306.2248Q1176.7200000000003 316.4248 1180.8000000000002 326.6248Q1184.88 336.8248 1191.8500000000001 345.3248Q1198.8200000000002 353.8248 1209.19 359.09479999999996Q1219.5600000000002 364.3648 1233.5000000000002 364.3648Q1244.0400000000002 364.3648 1253.9 360.4548Q1263.7600000000002 356.5448 1270.0500000000002 347.7048Q1276.3400000000001 338.8648 1276.3400000000001 323.5648Q1276.3400000000001 306.9048 1269.0300000000002 295.8548Q1261.7200000000003 284.8048 1250.5000000000002 276.8148Q1239.2800000000002 268.8248 1226.7 261.6848Q1214.8000000000002 254.5448 1203.5800000000002 246.72480000000002Q1192.3600000000001 238.9048 1185.39 228.1948Q1178.42 217.4848 1178.42 201.5048Q1178.42 183.8248 1187.2600000000002 172.09480000000002Q1196.1000000000001 160.3648 1210.21 154.5848Q1224.3200000000002 148.8048 1239.6200000000001 148.8048Q1248.46 148.8048 1258.15 150.6748Q1267.8400000000001 152.54479999999998 1278.38 156.9648Q1281.1000000000001 157.9848 1282.2900000000002 159.51479999999998Q1283.4800000000002 161.04479999999998 1283.4800000000002 162.7448L1286.5400000000002 198.7848Q1286.5400000000002 200.1448 1284.67 200.1448Q1282.8000000000002 200.1448 1282.46 198.7848Q1281.7800000000002 191.3048 1278.8900000000003 183.3148Q1276.0000000000002 175.32479999999998 1270.3900000000003 168.52479999999997Q1264.7800000000002 161.7248 1256.1100000000001 157.4748Q1247.44 153.2248 1235.2 153.2248Q1220.5800000000002 153.2248 1211.9100000000003 159.3448Q1203.2400000000002 165.4648 1199.5000000000002 174.6448Q1195.7600000000002 183.8248 1195.7600000000002 193.6848Z"/><path d="M1385.1400000000003 369.4648Q1365.0800000000004 369.4648 1350.2900000000004 359.6048Q1335.5000000000002 349.7448 1327.5100000000002 333.25480000000005Q1319.5200000000002 316.76480000000004 1319.5200000000002 297.7248Q1319.5200000000002 280.0448 1325.9800000000002 267.1248Q1332.4400000000003 254.2048 1343.1500000000003 245.8748Q1353.8600000000004 237.5448 1366.4400000000003 233.46480000000003Q1379.0200000000002 229.3848 1391.2600000000002 229.3848Q1411.6600000000003 229.3848 1426.2800000000002 239.58480000000003Q1440.9000000000003 249.78480000000002 1448.7200000000003 265.76480000000004Q1456.5400000000004 281.7448 1456.5400000000004 299.4248Q1456.5400000000004 321.1848 1446.6800000000003 336.8248Q1436.8200000000002 352.4648 1420.67 360.9648Q1404.5200000000002 369.4648 1385.1400000000003 369.4648ZM1394.6600000000003 363.3448Q1413.7000000000003 363.3448 1425.2600000000002 350.5948Q1436.8200000000002 337.8448 1436.8200000000002 308.26480000000004Q1436.8200000000002 287.5248 1429.6800000000003 271.2048Q1422.5400000000002 254.88479999999998 1409.7900000000002 245.3648Q1397.0400000000002 235.8448 1380.0400000000002 235.8448Q1360.6600000000003 235.8448 1349.7800000000002 249.27479999999997Q1338.9000000000003 262.7048 1338.9000000000003 287.8648Q1338.9000000000003 307.9248 1345.8700000000003 325.26480000000004Q1352.8400000000004 342.6048 1365.4200000000003 352.9748Q1378.0000000000002 363.3448 1394.6600000000003 363.3448Z"/><path d="M1523.5200000000004 367.4248Q1507.2000000000005 367.4248 1497.6800000000003 357.0548Q1488.1600000000003 346.6848 1488.1600000000003 325.9448V273.2448Q1488.1600000000003 259.3048 1486.1200000000003 253.3548Q1484.0800000000004 247.4048 1478.3000000000004 247.4048Q1473.2000000000005 247.4048 1466.0600000000004 250.8048Q1464.7000000000005 251.4848 1463.8500000000004 249.4448Q1463.0000000000005 247.4048 1464.3600000000004 247.0648L1500.0600000000004 231.0848Q1500.7400000000005 230.7448 1501.4200000000003 230.7448Q1502.1000000000004 230.7448 1503.1200000000003 231.4248Q1504.1400000000003 232.1048 1504.1400000000003 233.1248V315.7448Q1504.1400000000003 336.4848 1511.2800000000002 346.1748Q1518.4200000000003 355.8648 1532.7000000000005 355.8648Q1546.6400000000003 355.8648 1560.5800000000004 347.5348Q1574.5200000000004 339.2048 1585.0600000000004 324.58480000000003L1586.7600000000004 328.3248Q1570.1000000000004 349.4048 1554.8000000000004 358.4148Q1539.5000000000005 367.4248 1523.5200000000004 367.4248ZM1594.5800000000004 233.1248V329.3448Q1594.5800000000004 340.9048 1597.4700000000003 346.1748Q1600.3600000000004 351.4448 1607.1600000000003 351.4448Q1610.9000000000003 351.4448 1615.3200000000004 350.0848Q1619.7400000000005 348.7248 1626.2000000000005 346.3448Q1627.9000000000003 345.6648 1628.5800000000004 347.5348Q1629.2600000000004 349.4048 1627.9000000000003 350.08480000000003L1589.8200000000004 367.76480000000004Q1589.1400000000003 368.1048 1588.4600000000005 368.1048Q1586.0800000000004 368.1048 1582.5100000000004 361.13480000000004Q1578.9400000000005 354.1648 1578.9400000000005 340.9048V273.2448Q1578.9400000000005 259.3048 1576.7300000000005 253.3548Q1574.5200000000004 247.4048 1568.7400000000005 247.4048Q1563.6400000000003 247.4048 1556.5000000000005 250.8048Q1555.1400000000003 251.4848 1554.4600000000005 249.4448Q1553.7800000000004 247.4048 1555.1400000000003 247.0648L1590.8400000000004 231.0848Q1591.5200000000004 230.7448 1591.8600000000004 230.7448Q1592.5400000000004 230.7448 1593.5600000000004 231.4248Q1594.5800000000004 232.1048 1594.5800000000004 233.1248Z"/><path d="M1669.3800000000006 272.9048 1668.0200000000007 269.5048Q1680.6000000000006 253.8648 1688.5900000000006 245.53480000000002Q1696.5800000000006 237.2048 1702.3600000000006 233.97480000000002Q1708.1400000000006 230.7448 1713.5800000000006 230.7448Q1720.7200000000005 230.7448 1727.5200000000004 234.4848Q1734.3200000000006 238.22480000000002 1734.3200000000006 243.6648Q1734.3200000000006 247.0648 1731.7700000000004 249.7848Q1729.2200000000005 252.5048 1724.4600000000005 252.5048Q1720.3800000000006 252.5048 1717.4900000000007 250.1248Q1714.6000000000006 247.7448 1711.2000000000007 245.5348Q1707.8000000000006 243.32479999999998 1702.0200000000007 243.32479999999998Q1698.9600000000005 243.32479999999998 1695.3900000000006 245.1948Q1691.8200000000006 247.0648 1685.8700000000006 253.3548Q1679.9200000000005 259.64480000000003 1669.3800000000006 272.9048ZM1637.7600000000007 365.0448Q1636.7400000000005 365.0448 1636.7400000000005 363.00480000000005Q1636.7400000000005 360.9648 1637.7600000000007 360.9648Q1651.7000000000005 360.9648 1655.7800000000007 356.5448Q1659.8600000000006 352.1248 1659.8600000000006 337.5048V269.5048Q1659.8600000000006 257.9448 1657.1400000000006 252.6748Q1654.4200000000005 247.4048 1647.6200000000006 247.4048Q1644.2200000000005 247.4048 1639.4600000000005 248.76479999999998Q1634.7000000000005 250.1248 1628.5800000000006 252.5048Q1627.2200000000005 252.84480000000002 1626.3700000000006 251.1448Q1625.5200000000007 249.4448 1626.8800000000006 248.76479999999998L1664.6200000000006 231.0848Q1665.3000000000006 230.7448 1666.3200000000006 230.7448Q1668.7000000000005 230.7448 1672.2700000000004 237.7148Q1675.8400000000006 244.6848 1675.8400000000006 257.9448V337.5048Q1675.8400000000006 347.3648 1678.2200000000007 352.46479999999997Q1680.6000000000006 357.5648 1687.9100000000005 359.26480000000004Q1695.2200000000005 360.9648 1709.8400000000006 360.9648Q1710.8600000000006 360.9648 1710.8600000000006 363.00480000000005Q1710.8600000000006 365.0448 1709.8400000000006 365.0448Q1701.6800000000005 365.0448 1690.8000000000006 364.7048Q1679.9200000000005 364.3648 1668.0200000000007 364.3648Q1659.5200000000007 364.3648 1651.5300000000007 364.7048Q1643.5400000000006 365.0448 1637.7600000000007 365.0448Z"/><path d="M1811.8400000000006 369.1248Q1788.7200000000005 369.1248 1774.2700000000004 359.09479999999996Q1759.8200000000006 349.0648 1753.0200000000004 333.59479999999996Q1746.2200000000005 318.1248 1746.2200000000005 302.14480000000003Q1746.2200000000005 285.14480000000003 1752.6800000000005 271.88480000000004Q1759.1400000000006 258.6248 1769.8500000000006 249.4448Q1780.5600000000006 240.26479999999998 1793.4800000000005 235.5048Q1806.4000000000005 230.7448 1818.9800000000005 230.7448Q1828.5000000000005 230.7448 1837.3400000000006 233.2948Q1846.1800000000005 235.8448 1851.9600000000005 240.26479999999998Q1857.7400000000005 244.6848 1857.7400000000005 250.1248Q1857.7400000000005 254.2048 1855.1900000000005 257.0948Q1852.6400000000006 259.9848 1847.8800000000006 259.9848Q1843.1200000000006 259.9848 1839.7200000000007 256.9248Q1836.3200000000006 253.8648 1834.2800000000007 250.4648Q1830.2000000000005 244.6848 1824.5900000000006 241.1148Q1818.9800000000005 237.5448 1808.1000000000006 237.5448Q1787.3600000000006 237.5448 1776.4800000000005 252.6748Q1765.6000000000006 267.8048 1765.6000000000006 292.2848Q1765.6000000000006 309.6248 1771.7200000000007 324.7548Q1777.8400000000006 339.8848 1790.5900000000006 349.2348Q1803.3400000000006 358.58480000000003 1823.7400000000005 358.58480000000003Q1832.5800000000006 358.58480000000003 1841.9300000000007 356.0348Q1851.2800000000007 353.4848 1858.7600000000007 346.6848Q1859.7800000000007 346.0048 1860.9700000000007 347.3648Q1862.1600000000005 348.7248 1861.1400000000006 349.4048Q1849.5800000000006 359.9448 1837.6800000000007 364.5348Q1825.7800000000007 369.1248 1811.8400000000006 369.1248Z"/><path d="M1936.2800000000004 369.1248Q1916.2200000000005 369.1248 1902.7900000000004 359.7748Q1889.3600000000006 350.4248 1882.5600000000004 335.46479999999997Q1875.7600000000004 320.5048 1875.7600000000004 303.8448Q1875.7600000000004 283.1048 1885.2800000000004 266.6148Q1894.8000000000004 250.1248 1910.9500000000005 240.4348Q1927.1000000000006 230.7448 1946.1400000000006 230.7448Q1965.5200000000004 230.7448 1975.0400000000004 241.2848Q1984.5600000000006 251.82479999999998 1984.5600000000006 269.5048Q1984.5600000000006 273.9248 1983.7100000000005 275.96479999999997Q1982.8600000000006 278.0048 1980.4800000000005 278.0048H1964.5000000000005Q1966.2000000000005 256.9248 1957.8700000000003 247.2348Q1949.5400000000004 237.5448 1935.2600000000004 237.5448Q1916.2200000000005 237.5448 1905.6800000000005 251.9948Q1895.1400000000006 266.4448 1895.1400000000006 291.6048Q1895.1400000000006 310.64480000000003 1901.2600000000007 325.7748Q1907.3800000000006 340.9048 1919.2800000000007 349.5748Q1931.1800000000005 358.2448 1948.1800000000005 358.2448Q1960.0800000000006 358.2448 1967.7300000000005 354.6748Q1975.3800000000006 351.1048 1982.5200000000004 346.6848Q1983.2000000000005 346.0048 1984.3900000000006 347.5348Q1985.5800000000006 349.0648 1984.9000000000005 350.08480000000003Q1973.0000000000005 360.2848 1960.9300000000005 364.7048Q1948.8600000000006 369.1248 1936.2800000000004 369.1248ZM1890.7200000000005 278.3448 1890.3800000000006 274.26480000000004 1967.9000000000005 272.9048V278.0048Z"/><path d="M488.8000000000003 617.5978V574.1978H502.8120000000003Q507.8960000000003 574.1978 511.1200000000003 575.9028000000001Q514.3440000000003 577.6078 515.8940000000002 580.4598Q517.4440000000003 583.3118 517.4440000000003 586.9078Q517.4440000000003 590.3798 515.8630000000003 593.2938Q514.2820000000003 596.2078 510.9960000000003 597.9438Q507.7100000000003 599.6798 502.5640000000003 599.6798H494.00800000000027V617.5978ZM511.7400000000003 617.5978 502.1920000000003 598.1918000000001H508.0200000000003L517.8780000000003 617.5978ZM494.00800000000027 595.5878H502.4400000000003Q507.4000000000003 595.5878 509.7250000000003 593.1698Q512.0500000000003 590.7518 512.0500000000003 586.9698Q512.0500000000003 583.1258 509.78700000000026 580.8628Q507.5240000000003 578.5998 502.37800000000027 578.5998H494.00800000000027Z"/><path d="M544.4760000000003 617.5978V574.1978H571.3220000000003V578.4758H549.6840000000003V593.6038H569.4620000000003V597.8198H549.6840000000003V613.3198H571.3220000000003V617.5978Z"/><path d="M612.2420000000004 618.3418Q607.4680000000004 618.3418 603.9340000000004 616.6058Q600.4000000000004 614.8698 598.4780000000004 611.7698Q596.5560000000004 608.6698 596.5560000000004 604.5778H602.0120000000004Q602.0120000000004 607.1198 603.1900000000004 609.2588000000001Q604.3680000000004 611.3978 606.6310000000003 612.6687999999999Q608.8940000000003 613.9398 612.2420000000004 613.9398Q615.1560000000004 613.9398 617.2330000000004 612.9788Q619.3100000000004 612.0178 620.3950000000004 610.3438Q621.4800000000004 608.6698 621.4800000000004 606.5618000000001Q621.4800000000004 604.2058 620.4570000000003 602.6248Q619.4340000000004 601.0438 617.6360000000004 600.0208Q615.8380000000004 598.9978 613.4820000000004 598.1918000000001Q611.1260000000004 597.3858 608.3980000000004 596.5178Q602.9420000000003 594.7818 600.4930000000004 592.1468Q598.0440000000004 589.5118 598.0440000000004 585.3578Q598.0440000000004 581.8238 599.6870000000004 579.1578Q601.3300000000004 576.4918 604.3990000000003 574.9728Q607.4680000000004 573.4538 611.6840000000004 573.4538Q615.8380000000004 573.4538 618.9070000000004 575.0038Q621.9760000000003 576.5538 623.7120000000004 579.2508Q625.4480000000004 581.9478 625.4480000000004 585.4818H619.9920000000004Q619.9920000000004 583.6838 619.0620000000004 581.9478Q618.1320000000004 580.2118 616.2410000000004 579.0648000000001Q614.3500000000004 577.9178 611.4980000000004 577.9178Q609.1420000000004 577.8558 607.3130000000003 578.6928Q605.4840000000004 579.5298 604.4610000000004 581.0798Q603.4380000000003 582.6298 603.4380000000003 584.8618Q603.4380000000003 586.9698 604.3370000000003 588.2718Q605.2360000000003 589.5738 606.9410000000004 590.4728Q608.6460000000004 591.3718 610.9400000000004 592.1158Q613.2340000000004 592.8598 616.0240000000003 593.7898Q619.1860000000004 594.8438 621.6350000000004 596.3628Q624.0840000000004 597.8818 625.4790000000004 600.2378Q626.8740000000004 602.5938 626.8740000000004 606.2518Q626.8740000000004 609.3518 625.2310000000004 612.1108Q623.5880000000004 614.8698 620.3640000000004 616.6058Q617.1400000000003 618.3418 612.2420000000004 618.3418Z"/><path d="M662.3380000000004 617.5978V578.4758H649.3800000000005V574.1978H680.5040000000005V578.4758H667.5460000000004V617.5978Z"/><path d="M721.9200000000004 618.3418Q715.9680000000004 618.3418 711.4420000000005 615.5208Q706.9160000000004 612.6998 704.3740000000005 607.6468Q701.8320000000004 602.5938 701.8320000000004 595.8978Q701.8320000000004 589.2638000000001 704.3740000000005 584.2108000000001Q706.9160000000004 579.1578 711.4420000000005 576.3058Q715.9680000000004 573.4538 721.9200000000004 573.4538Q727.9960000000004 573.4538 732.5220000000004 576.3058Q737.0480000000005 579.1578 739.5280000000005 584.2108000000001Q742.0080000000005 589.2638000000001 742.0080000000005 595.8978Q742.0080000000005 602.5938 739.5280000000005 607.6468Q737.0480000000005 612.6998 732.5220000000004 615.5208Q727.9960000000004 618.3418 721.9200000000004 618.3418ZM721.9200000000004 613.7538Q726.3840000000005 613.7538 729.7010000000005 611.6148000000001Q733.0180000000005 609.4758 734.8470000000004 605.4768Q736.6760000000004 601.4778 736.6760000000004 595.8978Q736.6760000000004 590.3178 734.8470000000004 586.3188Q733.0180000000005 582.3198 729.7010000000005 580.2118Q726.3840000000005 578.1038 721.9200000000004 578.1038Q717.5180000000005 578.1038 714.2010000000005 580.2118Q710.8840000000005 582.3198 709.0240000000005 586.3188Q707.1640000000004 590.3178 707.1640000000004 595.8978Q707.1640000000004 601.4778 709.0240000000005 605.4768Q710.8840000000005 609.4758 714.2010000000005 611.6148000000001Q717.5180000000005 613.7538 721.9200000000004 613.7538Z"/><path d="M768.4200000000004 617.5978V574.1978H782.4320000000005Q787.5160000000004 574.1978 790.7400000000005 575.9028000000001Q793.9640000000004 577.6078 795.5140000000004 580.4598Q797.0640000000004 583.3118 797.0640000000004 586.9078Q797.0640000000004 590.3798 795.4830000000004 593.2938Q793.9020000000004 596.2078 790.6160000000004 597.9438Q787.3300000000004 599.6798 782.1840000000004 599.6798H773.6280000000004V617.5978ZM791.3600000000004 617.5978 781.8120000000005 598.1918000000001H787.6400000000004L797.4980000000004 617.5978ZM773.6280000000004 595.5878H782.0600000000004Q787.0200000000004 595.5878 789.3450000000005 593.1698Q791.6700000000004 590.7518 791.6700000000004 586.9698Q791.6700000000004 583.1258 789.4070000000004 580.8628Q787.1440000000005 578.5998 781.9980000000004 578.5998H773.6280000000004Z"/><path d="M824.0960000000005 617.5978V574.1978H850.9420000000005V578.4758H829.3040000000004V593.6038H849.0820000000004V597.8198H829.3040000000004V613.3198H850.9420000000005V617.5978Z"/><path d="M879.6480000000005 617.9078Q878.1600000000005 617.9078 877.1370000000005 616.8848Q876.1140000000005 615.8618 876.1140000000005 614.3738Q876.1140000000005 612.8858 877.1370000000005 611.8628Q878.1600000000005 610.8398 879.6480000000005 610.8398Q881.2600000000004 610.8398 882.2210000000005 611.8628Q883.1820000000005 612.8858 883.1820000000005 614.3738Q883.1820000000005 615.8618 882.2210000000005 616.8848Q881.2600000000004 617.9078 879.6480000000005 617.9078Z"/><path d="M944.7480000000005 617.5978V574.1978H958.7600000000004Q963.8440000000005 574.1978 967.0680000000004 575.9028000000001Q970.2920000000005 577.6078 971.8420000000006 580.4598Q973.3920000000005 583.3118 973.3920000000005 586.9078Q973.3920000000005 590.3798 971.8110000000005 593.2938Q970.2300000000005 596.2078 966.9440000000004 597.9438Q963.6580000000005 599.6798 958.5120000000005 599.6798H949.9560000000005V617.5978ZM967.6880000000006 617.5978 958.1400000000006 598.1918000000001H963.9680000000005L973.8260000000005 617.5978ZM949.9560000000005 595.5878H958.3880000000005Q963.3480000000005 595.5878 965.6730000000005 593.1698Q967.9980000000005 590.7518 967.9980000000005 586.9698Q967.9980000000005 583.1258 965.7350000000006 580.8628Q963.4720000000005 578.5998 958.3260000000005 578.5998H949.9560000000005Z"/><path d="M1000.4240000000005 617.5978V574.1978H1027.2700000000004V578.4758H1005.6320000000005V593.6038H1025.4100000000005V597.8198H1005.6320000000005V613.3198H1027.2700000000004V617.5978Z"/><path d="M1054.3020000000004 617.5978V574.1978H1059.5100000000004L1082.6360000000004 609.0418V574.1978H1087.8440000000005V617.5978H1082.6360000000004L1059.5100000000004 582.7538V617.5978Z"/><path d="M1115.9920000000002 617.5978V574.1978H1142.8380000000002V578.4758H1121.2000000000003V593.6038H1140.9780000000003V597.8198H1121.2000000000003V613.3198H1142.8380000000002V617.5978Z"/><path d="M1178.7360000000003 617.5978 1166.8320000000003 574.1978H1172.4120000000003L1181.7740000000003 611.3978L1192.3760000000002 574.1978H1198.2040000000002L1208.5580000000002 611.5218L1218.0440000000003 574.1978H1223.6240000000003L1211.4720000000002 617.5978H1205.5200000000002L1195.1660000000002 581.6998L1184.5640000000003 617.5978Z"/><path d="M1245.9440000000002 617.9078Q1244.4560000000001 617.9078 1243.433 616.8848Q1242.41 615.8618 1242.41 614.3738Q1242.41 612.8858 1243.433 611.8628Q1244.4560000000001 610.8398 1245.9440000000002 610.8398Q1247.556 610.8398 1248.517 611.8628Q1249.478 612.8858 1249.478 614.3738Q1249.478 615.8618 1248.517 616.8848Q1247.556 617.9078 1245.9440000000002 617.9078Z"/><path d="M1321.15 617.5978V578.4758H1308.192V574.1978H1339.316V578.4758H1326.358V617.5978Z"/><path d="M1392.326 617.5978V574.1978H1397.5339999999999V617.5978ZM1364.6119999999999 617.5978V574.1978H1369.82V617.5978ZM1368.828 597.6338000000001V593.3558H1393.628V597.6338000000001Z"/><path d="M1425.6819999999998 617.5978V574.1978H1439.694Q1444.7779999999998 574.1978 1448.002 575.9028000000001Q1451.2259999999999 577.6078 1452.7759999999998 580.4598Q1454.3259999999998 583.3118 1454.3259999999998 586.9078Q1454.3259999999998 590.3798 1452.745 593.2938Q1451.164 596.2078 1447.878 597.9438Q1444.5919999999999 599.6798 1439.446 599.6798H1430.8899999999999V617.5978ZM1448.6219999999998 617.5978 1439.0739999999998 598.1918000000001H1444.9019999999998L1454.76 617.5978ZM1430.8899999999999 595.5878H1439.322Q1444.282 595.5878 1446.607 593.1698Q1448.9319999999998 590.7518 1448.9319999999998 586.9698Q1448.9319999999998 583.1258 1446.6689999999999 580.8628Q1444.406 578.5998 1439.26 578.5998H1430.8899999999999Z"/><path d="M1481.3579999999997 617.5978V574.1978H1486.5659999999998V617.5978Z"/><path d="M1527.6719999999998 617.5978 1511.3659999999998 574.1978H1517.0079999999998L1530.7099999999998 612.0798L1544.5359999999998 574.1978H1550.0539999999999L1533.7479999999998 617.5978Z"/><path d="M1574.8539999999996 617.5978V574.1978H1601.6999999999996V578.4758H1580.0619999999997V593.6038H1599.8399999999997V597.8198H1580.0619999999997V613.3198H1601.6999999999996V617.5978Z"/><path d="M1630.4059999999997 617.9078Q1628.9179999999997 617.9078 1627.8949999999995 616.8848Q1626.8719999999996 615.8618 1626.8719999999996 614.3738Q1626.8719999999996 612.8858 1627.8949999999995 611.8628Q1628.9179999999997 610.8398 1630.4059999999997 610.8398Q1632.0179999999996 610.8398 1632.9789999999996 611.8628Q1633.9399999999996 612.8858 1633.9399999999996 614.3738Q1633.9399999999996 615.8618 1632.9789999999996 616.8848Q1632.0179999999996 617.9078 1630.4059999999997 617.9078Z"/><rect x="204.03" y="594.4" width="190" height="3"/><rect x="1726.85" y="594.4" width="190" height="3"/></g></svg>